<svg xmlns="http://www.w3.org/2000/svg" xmlns:xlink="http://www.w3.org/1999/xlink" width="500" zoomAndPan="magnify" viewBox="0 0 375 374.999991" height="500" preserveAspectRatio="xMidYMid meet" version="1.0"><defs><g/><clipPath id="bcc8908da9"><rect x="0" width="198" y="0" height="323"/></clipPath><clipPath id="341876e5ee"><rect x="0" width="199" y="0" height="323"/></clipPath></defs><g transform="matrix(1, 0, 0, 1, 0, 14)"><g clip-path="url(#bcc8908da9)"><g fill="#ffaa33" fill-opacity="1"><g transform="translate(0.0000045, 247.567136)"><g><path d="M 185.421875 -64.78125 C 185.785156 -62.976562 186.101562 -61.128906 186.375 -59.234375 C 186.644531 -57.347656 186.867188 -55.507812 187.046875 -53.71875 C 186.867188 -51.738281 186.644531 -49.800781 186.375 -47.90625 C 186.101562 -46.019531 185.878906 -44.085938 185.703125 -42.109375 C 185.160156 -38.148438 184.570312 -34.234375 183.9375 -30.359375 C 183.3125 -26.492188 182.546875 -22.671875 181.640625 -18.890625 C 179.304688 -10.078125 175.347656 -4.585938 169.765625 -2.421875 C 164.191406 0.0859375 157.175781 -1.082031 148.71875 -5.9375 C 147.457031 -6.65625 145.75 -7.015625 143.59375 -7.015625 C 141.613281 -7.015625 139.539062 -6.65625 137.375 -5.9375 C 122.445312 -0.894531 104.457031 -0.0859375 83.40625 -3.515625 C 74.582031 -5.128906 66.75 -7.867188 59.90625 -11.734375 C 53.070312 -15.609375 47.179688 -19.972656 42.234375 -24.828125 C 37.285156 -29.691406 33.191406 -34.460938 29.953125 -39.140625 C 22.222656 -50.109375 16.644531 -62.113281 13.21875 -75.15625 C 9.800781 -88.207031 9.082031 -100.222656 11.0625 -111.203125 C 13.945312 -126.859375 19.929688 -141.253906 29.015625 -154.390625 C 38.097656 -167.523438 49.75 -178.585938 63.96875 -187.578125 C 77.101562 -196.035156 90.910156 -201.75 105.390625 -204.71875 C 119.878906 -207.6875 133.0625 -207.550781 144.9375 -204.3125 C 149.800781 -202.875 154.796875 -200.894531 159.921875 -198.375 C 165.046875 -195.863281 169.226562 -192 172.46875 -186.78125 C 174.8125 -182.820312 175.710938 -178.410156 175.171875 -173.546875 C 174.992188 -171.210938 174.09375 -169.503906 172.46875 -168.421875 C 170.488281 -167.160156 168.148438 -167.070312 165.453125 -168.15625 C 136.117188 -178.945312 107.867188 -173.640625 80.703125 -152.234375 C 65.222656 -139.992188 56.40625 -123.882812 54.25 -103.90625 C 51.726562 -83.039062 59.828125 -66.039062 78.546875 -52.90625 C 97.078125 -40.125 117.585938 -37.691406 140.078125 -45.609375 C 142.234375 -46.328125 144.347656 -47.585938 146.421875 -49.390625 C 148.492188 -51.191406 149.347656 -54.160156 148.984375 -58.296875 L 148.984375 -59.109375 C 148.984375 -59.828125 149.03125 -60.679688 149.125 -61.671875 C 149.21875 -62.660156 149.265625 -63.601562 149.265625 -64.5 C 149.441406 -67.207031 149.53125 -69.816406 149.53125 -72.328125 C 149.53125 -74.847656 148.8125 -77.007812 147.375 -78.8125 C 146.113281 -80.613281 144.3125 -81.738281 141.96875 -82.1875 C 139.632812 -82.632812 137.207031 -82.945312 134.6875 -83.125 C 133.601562 -83.125 132.566406 -83.171875 131.578125 -83.265625 C 130.585938 -83.359375 129.644531 -83.492188 128.75 -83.671875 L 126.59375 -83.9375 C 125.332031 -84.300781 124.070312 -84.617188 122.8125 -84.890625 C 121.550781 -85.160156 120.289062 -85.472656 119.03125 -85.828125 C 114.164062 -87.984375 111.644531 -91.492188 111.46875 -96.359375 C 111.289062 -100.140625 112.910156 -103.019531 116.328125 -105 C 132.523438 -114.707031 149.441406 -116.863281 167.078125 -111.46875 C 171.753906 -110.207031 175.082031 -107.597656 177.0625 -103.640625 C 179.039062 -99.679688 180.300781 -96.265625 180.84375 -93.390625 C 181.738281 -88.710938 182.585938 -83.941406 183.390625 -79.078125 C 184.203125 -74.222656 184.878906 -69.457031 185.421875 -64.78125 Z M 185.421875 -64.78125 "/></g></g></g></g></g><g transform="matrix(1, 0, 0, 1, 175, 14)"><g clip-path="url(#341876e5ee)"><g fill="#ffffff" fill-opacity="1"><g transform="translate(0.361682, 247.567136)"><g><path d="M 185.421875 -64.78125 C 185.785156 -62.976562 186.101562 -61.128906 186.375 -59.234375 C 186.644531 -57.347656 186.867188 -55.507812 187.046875 -53.71875 C 186.867188 -51.738281 186.644531 -49.800781 186.375 -47.90625 C 186.101562 -46.019531 185.878906 -44.085938 185.703125 -42.109375 C 185.160156 -38.148438 184.570312 -34.234375 183.9375 -30.359375 C 183.3125 -26.492188 182.546875 -22.671875 181.640625 -18.890625 C 179.304688 -10.078125 175.347656 -4.585938 169.765625 -2.421875 C 164.191406 0.0859375 157.175781 -1.082031 148.71875 -5.9375 C 147.457031 -6.65625 145.75 -7.015625 143.59375 -7.015625 C 141.613281 -7.015625 139.539062 -6.65625 137.375 -5.9375 C 122.445312 -0.894531 104.457031 -0.0859375 83.40625 -3.515625 C 74.582031 -5.128906 66.75 -7.867188 59.90625 -11.734375 C 53.070312 -15.609375 47.179688 -19.972656 42.234375 -24.828125 C 37.285156 -29.691406 33.191406 -34.460938 29.953125 -39.140625 C 22.222656 -50.109375 16.644531 -62.113281 13.21875 -75.15625 C 9.800781 -88.207031 9.082031 -100.222656 11.0625 -111.203125 C 13.945312 -126.859375 19.929688 -141.253906 29.015625 -154.390625 C 38.097656 -167.523438 49.75 -178.585938 63.96875 -187.578125 C 77.101562 -196.035156 90.910156 -201.75 105.390625 -204.71875 C 119.878906 -207.6875 133.0625 -207.550781 144.9375 -204.3125 C 149.800781 -202.875 154.796875 -200.894531 159.921875 -198.375 C 165.046875 -195.863281 169.226562 -192 172.46875 -186.78125 C 174.8125 -182.820312 175.710938 -178.410156 175.171875 -173.546875 C 174.992188 -171.210938 174.09375 -169.503906 172.46875 -168.421875 C 170.488281 -167.160156 168.148438 -167.070312 165.453125 -168.15625 C 136.117188 -178.945312 107.867188 -173.640625 80.703125 -152.234375 C 65.222656 -139.992188 56.40625 -123.882812 54.25 -103.90625 C 51.726562 -83.039062 59.828125 -66.039062 78.546875 -52.90625 C 97.078125 -40.125 117.585938 -37.691406 140.078125 -45.609375 C 142.234375 -46.328125 144.347656 -47.585938 146.421875 -49.390625 C 148.492188 -51.191406 149.347656 -54.160156 148.984375 -58.296875 L 148.984375 -59.109375 C 148.984375 -59.828125 149.03125 -60.679688 149.125 -61.671875 C 149.21875 -62.660156 149.265625 -63.601562 149.265625 -64.5 C 149.441406 -67.207031 149.53125 -69.816406 149.53125 -72.328125 C 149.53125 -74.847656 148.8125 -77.007812 147.375 -78.8125 C 146.113281 -80.613281 144.3125 -81.738281 141.96875 -82.1875 C 139.632812 -82.632812 137.207031 -82.945312 134.6875 -83.125 C 133.601562 -83.125 132.566406 -83.171875 131.578125 -83.265625 C 130.585938 -83.359375 129.644531 -83.492188 128.75 -83.671875 L 126.59375 -83.9375 C 125.332031 -84.300781 124.070312 -84.617188 122.8125 -84.890625 C 121.550781 -85.160156 120.289062 -85.472656 119.03125 -85.828125 C 114.164062 -87.984375 111.644531 -91.492188 111.46875 -96.359375 C 111.289062 -100.140625 112.910156 -103.019531 116.328125 -105 C 132.523438 -114.707031 149.441406 -116.863281 167.078125 -111.46875 C 171.753906 -110.207031 175.082031 -107.597656 177.0625 -103.640625 C 179.039062 -99.679688 180.300781 -96.265625 180.84375 -93.390625 C 181.738281 -88.710938 182.585938 -83.941406 183.390625 -79.078125 C 184.203125 -74.222656 184.878906 -69.457031 185.421875 -64.78125 Z M 185.421875 -64.78125 "/></g></g></g></g></g></svg>